<svg width="12" height="16" viewBox="0 0 12 16" fill="none" xmlns="http://www.w3.org/2000/svg">
<path d="M0 4.41324V13.7301C0 14.2503 0.206653 14.7492 0.574494 15.117C0.942336 15.4849 1.44123 15.6915 1.96144 15.6915H9.80721C10.3274 15.6915 10.8263 15.4849 11.1942 15.117C11.562 14.7492 11.7686 14.2503 11.7686 13.7301V1.96144C11.7686 1.44123 11.562 0.942334 11.1942 0.574493C10.8263 0.206651 10.3274 0 9.80721 0H4.41324L0 4.41324ZM2.90293 2.82448C2.90293 2.82448 1.01995 3.84442 2.88567 2.84138L4.73275 0.980721H9.80721C10.0673 0.980721 10.3168 1.08405 10.5007 1.26797C10.6846 1.45189 10.7879 1.70134 10.7879 1.96144V13.7301C10.7879 13.9902 10.6846 14.2396 10.5007 14.4236C10.3168 14.6075 10.0673 14.7108 9.80721 14.7108H1.96144C1.70134 14.7108 1.45189 14.6075 1.26797 14.4236C1.08405 14.2396 0.980721 13.9902 0.980721 13.7301V4.70746L2.90293 2.82448Z" fill="#6F718A"/>
<path d="M4.31406 2.87568C4.31406 2.34621 4.74327 1.91699 5.27274 1.91699H9.10747C9.63694 1.91699 10.0662 2.34621 10.0662 2.87568C10.0662 3.40514 9.63694 3.83436 9.10747 3.83436H5.27274C4.74327 3.83436 4.31406 3.40514 4.31406 2.87568Z" fill="#6F718A"/>
<path d="M1.91736 9.10734C1.91736 8.57788 2.34658 8.14866 2.87604 8.14866H9.10748C9.63695 8.14866 10.0662 8.57788 10.0662 9.10734C10.0662 9.63681 9.63695 10.066 9.10748 10.066H2.87604C2.34658 10.066 1.91736 9.63681 1.91736 9.10734Z" fill="#6F718A"/>
<path d="M1.91736 6.71064C1.91736 6.18117 2.34658 5.75195 2.87604 5.75195H9.10748C9.63695 5.75195 10.0662 6.18117 10.0662 6.71064C10.0662 7.2401 9.63695 7.66932 9.10748 7.66932H2.87604C2.34658 7.66932 1.91736 7.2401 1.91736 6.71064Z" fill="#6F718A"/>
<path d="M1.91736 11.5041C1.91736 10.9746 2.34658 10.5454 2.87604 10.5454H9.10748C9.63695 10.5454 10.0662 10.9746 10.0662 11.5041C10.0662 12.0335 9.63695 12.4627 9.10748 12.4627H2.87604C2.34658 12.4627 1.91736 12.0335 1.91736 11.5041Z" fill="#6F718A"/>
<rect x="5.27277" y="12.9424" width="4.79341" height="0.958683" rx="0.479341" fill="#6F718A"/>
</svg>
